# xmcd CD database file
#
# Track frame offsets:
#	182
#	12757
#	25445
#	36407
#	50332
#	61420
#	75495
#	87507
#	97882
#	110932
#	125057
#	136470
#	149695
#	162845
#	176645
#	188907
#	201432
#
# Disc length: 2865 seconds
#
# Revision: 3
# Processed by: cddbd v1.5.2PL0 Copyright (c) Steve Scherf et al.
# Submitted via: CDex 1.97
#
DISCID=fa0b2f11
DTITLE=Various Artist - Big Bill's Blues ( With Muddy Waters)
DYEAR=1953
DGENRE=Blues
TTITLE0=Big Bill Broonzy - Little City Woman
TTITLE1=Big Bill Broonzy - Lonesome
TTITLE2=Big Bill Broonzy - Jacqueline
TTITLE3=Big Bill Broonzy - Romance Without Finance
TTITLE4=Big Bill Broonzy - Minding My Own Business
TTITLE5=Big Bill Broonzy - Horse Shoe Over My Door
TTITLE6=Big Bill Broonzy - I'm A Lonely Man
TTITLE7=Muddy Waters - Tell Me Baby
TTITLE8=Muddy Waters - Southbound Train
TTITLE9=Muddy Waters - When I Get To Thinking
TTITLE10=Muddy Waters - Just A Dream (On My Mind)
TTITLE11=Muddy Waters - I Feel So Good
TTITLE12=Muddy Waters - Mopper's Blues
TTITLE13=Muddy Waters - Lonesome Road Blues
TTITLE14=Muddy Waters - Hey Hey
TTITLE15=Muddy Waters - Double Trouble
TTITLE16=Muddy Waters - I Done Got Wise
EXTD=YEAR: 1953
EXTT0=
EXTT1=
EXTT2=
EXTT3=
EXTT4=
EXTT5=
EXTT6=
EXTT7=
EXTT8=
EXTT9=
EXTT10=
EXTT11=
EXTT12=
EXTT13=
EXTT14=
EXTT15=
EXTT16=
PLAYORDER=
